<?xml version="1.0" encoding="UTF-8"?>
<svg version="1.1" xmlns="http://www.w3.org/2000/svg" width="470" height="411">
<path d="M0 0 C155.1 0 310.2 0 470 0 C470 135.63 470 271.26 470 411 C314.9 411 159.8 411 0 411 C0 275.37 0 139.74 0 0 Z " fill="none" transform="translate(0,0)"/>
<path d="M0 0 C-2.81302038 1.87534692 -4.36950162 2.47048866 -7.5625 3.25 C-35.17814047 10.56323285 -59.7328269 22.74301175 -81 42 C-82.31871094 43.13888672 -82.31871094 43.13888672 -83.6640625 44.30078125 C-110.78324094 67.93560705 -129.23253462 101.08508367 -137.1875 136 C-137.3424292 136.67466309 -137.4973584 137.34932617 -137.65698242 138.04443359 C-140.35985599 150.58329506 -141.41746867 163.0668278 -141.375 175.875 C-141.37345917 176.58754944 -141.37191833 177.30009888 -141.37033081 178.03424072 C-141.13275298 224.63186263 -122.8075285 267.31494378 -91 301 C-90.278125 301.78632813 -89.55625 302.57265625 -88.8125 303.3828125 C-65.66505132 327.70327378 -34.13890192 342.7815282 -2 351 C-2 351.33 -2 351.66 -2 352 C-29.1101257 354.99835492 -57.38395768 335.40212046 -77.70458984 319.35449219 C-86.8224858 312.01071216 -95.66930618 304.15921155 -103 295 C-103.74378906 294.09378906 -104.48757812 293.18757813 -105.25390625 292.25390625 C-116.84162794 277.87176977 -125.66461074 261.90505746 -133 245 C-133.29245605 244.33323242 -133.58491211 243.66646484 -133.88623047 242.97949219 C-149.43973354 206.8499052 -150.90408067 161.29687614 -139 124 C-138.77892578 123.27345215 -138.55785156 122.5469043 -138.33007812 121.79833984 C-131.83412265 100.62486979 -121.45534927 81.53983438 -108 64 C-107.26523438 63.02289063 -106.53046875 62.04578125 -105.7734375 61.0390625 C-82.57445761 31.41040279 -39.56292931 -2.52529336 0 0 Z " fill="#0756CC" transform="translate(206,22) scale(0.57)" />
<path d="M0 0 C16.11785866 -0.88182813 28.82077533 3.84397443 43 11 C43.75506836 11.37431152 44.51013672 11.74862305 45.28808594 12.13427734 C56.24012105 17.58346264 66.3200813 23.51840662 76 31 C76.89332031 31.6703125 77.78664063 32.340625 78.70703125 33.03125 C110.84686134 58.0877892 132.65958562 93.89208605 142.8125 133.125 C143.00739014 133.86266602 143.20228027 134.60033203 143.40307617 135.36035156 C146.75098882 149.09431848 147.44513749 163.2939509 147.4375 177.375 C147.43790283 178.14903168 147.43830566 178.92306335 147.4387207 179.72055054 C147.31183024 222.47662008 131.1911033 263.86930513 103 296 C102.23816406 296.87140625 101.47632813 297.7428125 100.69140625 298.640625 C98.48913462 301.12143014 96.25574951 303.56782315 94 306 C93.46246094 306.59167969 92.92492187 307.18335938 92.37109375 307.79296875 C73.7950315 327.39327504 39.94081146 350.50496036 12.49609375 352.4921875 C9.28023153 352.49867764 6.18942248 352.39187443 3 352 C5.88234337 350.07843775 7.66832091 349.4460343 10.96484375 348.62890625 C39.91437597 341.02412524 66.16147455 326.41388061 87.52099609 305.44824219 C88.96357299 304.03566937 90.42882755 302.6463739 91.89453125 301.2578125 C121.25827463 272.92077343 141.24987483 229.09918534 142.26522827 188.12442017 C142.31365514 184.82104234 142.32431136 181.5187851 142.31567383 178.21508789 C142.31251682 175.70089144 142.3360625 173.18788011 142.36132812 170.67382812 C142.41705358 156.50751713 140.40254224 143.12003512 136.6875 129.4375 C136.47367676 128.64778809 136.25985352 127.85807617 136.03955078 127.04443359 C127.96283802 98.00908857 112.50271355 72.94270347 92 51 C91.22914063 50.175 90.45828125 49.35 89.6640625 48.5 C76.15631073 34.51138976 59.93424866 24.10982192 42.49609375 15.7265625 C39 14 39 14 36.484375 12.421875 C33.39448733 10.65344872 30.20421553 9.63469926 26.8125 8.625 C26.12994141 8.41657471 25.44738281 8.20814941 24.74414062 7.9934082 C16.53898509 5.51314608 8.27078614 3.24957725 0 1 C0 0.67 0 0.34 0 0 Z " fill="#1F95DF" transform="translate(279,22)  scale(0.6)"/>
</svg>
