<svg version="1.1" id="Layer_1" xmlns="http://www.w3.org/2000/svg" xmlns:xlink="http://www.w3.org/1999/xlink" height="40px"  x="0px" y="0px" viewBox="0 0 4148 793.8" xml:space="preserve" class="logo-text" style="enable-background:new 0 0 4148 793.8;" data-v-6e5a91ae=""><path d="M105.1,557H4.6L0,552.5V241.7l4.6-4.6h100.6c114.3,0,155.4,59.4,155.4,160S219.4,557,105.1,557z M109.7,292H68.6l-4.6,4.5
	v201.1l4.6,4.6h41.1c64,0,86.8-32,86.8-105.1S173.7,292,109.7,292z" data-v-6e5a91ae="" data-svg-origin="0 237.09999084472656" transform="matrix(1,0,0,1,0,0)" style="transform-origin: 0px 0px; transform: matrix(1, 0, 0, 1, 0, 0); opacity: 1;"></path><path d="M365.6,237.1h64l9.1,4.6l123.4,210.3h4.6V241.7l4.6-4.6h54.8l4.6,4.6v310.8l-4.6,4.6h-64l-9.1-4.6L429.6,342.2h-4.6v210.2
	l-4.6,4.6h-54.9l-4.6-4.6V241.7L365.6,237.1z" data-v-6e5a91ae="" data-svg-origin="360.8999938964844 237.09999084472656" transform="matrix(1,0,0,1,0,0)" style="transform-origin: 0px 0px; transform: matrix(1, 0, 0, 1, 0, 0); opacity: 1;"></path><path d="M1005.5,557h-41.1l-4.6-4.6L937,493.1l-9.1-4.6H813.6l-9.1,4.6l-22.8,59.4L777,557h-41.1l-4.6-4.6v-45.7l105.1-265.1
	l4.6-4.6h59.4l4.6,4.6l105.1,265.1v45.7L1005.5,557z M873,319.4h-4.6l-41.1,109.7l4.6,4.6h77.7l4.6-4.6L873,319.4z" data-v-6e5a91ae="" data-svg-origin="731.300048828125 237" transform="matrix(1,0,0,1,0,0)" style="transform-origin: 0px 0px; transform: matrix(1, 0, 0, 1, 0, 0); opacity: 1;"></path><path d="M1417.4,461.1l4.6-4.6h54.8l4.6,4.6c-9.1,64-59.4,100.6-132.6,100.6c-100.6,0-155.4-68.6-155.4-164.5
	s54.8-164.6,155.4-164.6c73.1,0,123.4,36.6,132.6,96l-4.6,4.6h-54.8l-4.6-4.6c-9.1-27.4-32-41.1-68.6-41.1
	c-64,0-91.4,45.7-91.4,109.7s27.4,109.7,91.4,109.7C1385.4,506.8,1408.2,493.1,1417.4,461.1z" data-v-6e5a91ae="" data-svg-origin="1193.4000244140625 232.60000610351562" transform="matrix(1,0,0,1,0,0)" style="transform-origin: 0px 0px; transform: matrix(1, 0, 0, 1, 0, 0); opacity: 1;"></path><path d="M1836,557h-41.1l-4.6-4.6l-22.9-59.4l-9.1-4.6h-114.2l-9.1,4.6l-22.8,59.4l-4.6,4.6h-41.1l-4.6-4.6v-45.7l105.1-265.1
	l4.6-4.6h59.4l4.6,4.6l105.1,265.1v45.7L1836,557z M1703.5,319.4h-4.6l-41.1,109.7l4.6,4.6h77.7l4.6-4.6L1703.5,319.4z" data-v-6e5a91ae="" data-svg-origin="1561.900146484375 237" transform="matrix(1,0,0,1,0,0)" style="transform-origin: 0px 0px; transform: matrix(1, 0, 0, 1, 0, 0); opacity: 1;"></path><path d="M2087.4,429.1h-86.8l-4.6,4.6v118.8l-4.6,4.6h-54.8l-4.6-4.6V241.7l4.6-4.6h150.8c64,0,109.7,32,109.7,96
	S2151.4,429.1,2087.4,429.1z M2087.4,292h-86.8l-4.6,4.6v73.1l4.6,4.6h86.8c27.4,0,45.7-9.1,45.7-41.1S2114.9,292,2087.4,292
	L2087.4,292z" data-v-6e5a91ae="" data-svg-origin="1931.9998779296875 237.09999084472656" transform="matrix(1,0,0,1,0,0)" style="transform-origin: 0px 0px; transform: matrix(1, 0, 0, 1, 0, 0); opacity: 1;"></path><path d="M2357.1,557h-54.9l-4.6-4.6V241.7l4.6-4.6h54.9l4.6,4.6v310.8L2357.1,557z" data-v-6e5a91ae="" data-svg-origin="2297.60009765625 237.09999084472656" transform="matrix(1,0,0,1,0,0)" style="transform-origin: 0px 0px; transform: matrix(1, 0, 0, 1, 0, 0); opacity: 1;"></path><path d="M2731.9,292h-91.4l-4.6,4.6v256l-4.6,4.6h-54.9l-4.6-4.6v-256l-4.6-4.6h-91.4l-4.6-4.6v-45.8l4.6-4.6h256l4.6,4.6v45.7
	L2731.9,292z" data-v-6e5a91ae="" data-svg-origin="2471.19970703125 236.9999542236328" transform="matrix(1,0,0,1,0,0)" style="transform-origin: 0px 0px; transform: matrix(1, 0, 0, 1, 0, 0); opacity: 1;"></path><path d="M3074.7,557h-41.1l-4.6-4.6l-22.9-59.4l-9.1-4.6h-114.3l-9.1,4.6l-22.9,59.4l-4.6,4.6H2805l-4.6-4.6v-45.7l105.1-265.1
	l4.6-4.6h59.4l4.6,4.6l105.1,265.1v45.7L3074.7,557z M2942.1,319.4h-4.6l-41.1,109.7l4.6,4.6h77.7l4.6-4.6L2942.1,319.4z" data-v-6e5a91ae="" data-svg-origin="2800.39990234375 237" transform="matrix(1,0,0,1,0,0)" style="transform-origin: 0px 0px; transform: matrix(1, 0, 0, 1, 0, 0); opacity: 1;"></path><path d="M3399.2,557h-205.7l-4.6-4.6V241.7l4.6-4.6h54.9l4.6,4.6v256l4.6,4.6h141.7l4.6,4.6v45.7L3399.2,557z" data-v-6e5a91ae="" data-svg-origin="3188.89990234375 237.09999084472656" transform="matrix(1,0,0,1,0,0)" style="transform-origin: 0px 0px; transform: matrix(1, 0, 0, 1, 0, 0); opacity: 1;"></path></svg>